<svg width="189" height="115" viewBox="0 0 189 115" fill="none" xmlns="http://www.w3.org/2000/svg">
<path d="M162.03 28.1427L56.4699 20.5027C53.6938 20.3018 51.2805 22.3893 51.0796 25.1654L46.4938 88.5262C46.2929 91.3023 48.3804 93.7156 51.1565 93.9165L156.717 101.557C159.493 101.757 161.906 99.6699 162.107 96.8939L166.693 33.533C166.894 30.757 164.806 28.3436 162.03 28.1427Z" fill="white"/>
<path d="M171.954 30.1262L68.6596 7.07063C65.9431 6.46431 63.2494 8.17492 62.6431 10.8914L48.8044 72.8923C48.198 75.6088 49.9087 78.3024 52.6251 78.9087L155.92 101.964C158.636 102.571 161.33 100.86 161.936 98.1436L175.775 36.1427C176.381 33.4262 174.671 30.7326 171.954 30.1262Z" fill="#01221D"/>
<mask id="mask0_25_160" style="mask-type:alpha" maskUnits="userSpaceOnUse" x="48" y="6" width="128" height="97">
<path d="M171.954 30.1262L68.6596 7.07063C65.9431 6.46431 63.2494 8.17492 62.6431 10.8914L48.8044 72.8923C48.198 75.6088 49.9087 78.3024 52.6251 78.9087L155.92 101.964C158.636 102.571 161.33 100.86 161.936 98.1436L175.775 36.1427C176.381 33.4262 174.671 30.7326 171.954 30.1262Z" fill="#F5B3A5"/>
</mask>
<g mask="url(#mask0_25_160)">
<path d="M221.298 105.502L192.059 23.442L181.541 -6.07473L179.063 -13.029L115.05 14.5381L116.482 18.556L140.944 86.0961C140.944 86.0961 143.661 97.5825 159.492 101.116C175.953 104.79 220.044 114.583 220.044 114.583L221.298 105.502Z" fill="#7B61FF"/>
<path d="M136.137 -69.8146L241.895 -45.2059C250.24 -43.2641 252.309 -36.6375 246.517 -30.4045L134.624 90.0139C128.004 97.4491 117.373 99.7256 109.029 97.7841L3.27082 73.1754C-5.07324 71.2337 -7.14245 64.6071 -1.3508 58.3742L110.542 -62.0442C116.333 -68.2769 127.793 -71.7558 136.137 -69.8146Z" fill="#07BFA5"/>
<g clip-path="url(#clip0_25_160)">
<rect x="73.1308" y="37.8787" width="14.4463" height="14.4463" rx="3.00964" transform="rotate(12.585 73.1308 37.8787)" fill="white"/>
<path fill-rule="evenodd" clip-rule="evenodd" d="M84.1023 43.7558C84.4196 43.7409 84.7005 43.5164 84.773 43.1915C84.8599 42.8022 84.6148 42.4161 84.2254 42.3292C83.8361 42.2422 83.45 42.4874 83.3631 42.8767C83.2987 43.1651 83.4165 43.4516 83.64 43.6162C82.8761 45.5765 80.7756 46.7396 78.659 46.2671C76.5424 45.7946 75.1361 43.8485 75.2784 41.7494C75.5507 41.6956 75.7792 41.4863 75.8435 41.198C75.9305 40.8087 75.6853 40.4226 75.296 40.3357C74.9066 40.2487 74.5205 40.4939 74.4336 40.8832C74.3611 41.2081 74.5198 41.5308 74.8006 41.6792C74.6226 44.026 76.1895 46.2092 78.5541 46.7371C80.9187 47.265 83.2653 45.9555 84.1023 43.7558Z" fill="#07BFA5"/>
</g>
<path d="M96.8073 51.5545C96.7094 51.9932 96.5057 52.3712 96.1964 52.6886C95.8949 53.0078 95.5003 53.2281 95.0127 53.3495C94.5329 53.4727 93.9837 53.4652 93.3649 53.327C92.4328 53.1189 91.7158 52.7204 91.2141 52.1314C90.7124 51.5425 90.5251 50.8346 90.6521 50.0077L92.7905 50.4851C92.7519 50.8054 92.8065 51.0766 92.9542 51.2987C93.1098 51.5226 93.3365 51.6678 93.6341 51.7342C93.8926 51.7919 94.112 51.7669 94.2923 51.6591C94.4726 51.5514 94.589 51.38 94.6414 51.145C94.6886 50.9335 94.6575 50.7416 94.548 50.5691C94.4463 50.3984 94.3032 50.2472 94.1188 50.1156C93.9362 49.9761 93.6787 49.8035 93.3463 49.5977C92.8617 49.3004 92.4694 49.0319 92.1693 48.7922C91.8788 48.5464 91.6489 48.232 91.4795 47.8488C91.3197 47.4595 91.2993 46.9986 91.4182 46.4659C91.5283 45.9724 91.749 45.5735 92.0801 45.2692C92.4112 44.9648 92.817 44.7676 93.2976 44.6776C93.7878 44.5814 94.3188 44.5972 94.8906 44.7248C95.8149 44.9312 96.4983 45.314 96.9408 45.8733C97.3912 46.4343 97.5659 47.1065 97.4651 47.8899L95.2914 47.4046C95.3135 47.1217 95.2598 46.8836 95.1302 46.6902C95.0103 46.4908 94.8133 46.3604 94.5391 46.2992C94.3041 46.2468 94.0982 46.2666 93.9214 46.3587C93.7525 46.4525 93.6409 46.6209 93.5867 46.8637C93.5429 47.0595 93.568 47.2419 93.6619 47.4109C93.7653 47.5738 93.9053 47.7201 94.0819 47.85C94.2585 47.9799 94.516 48.1525 94.8544 48.3679C95.3468 48.6669 95.7413 48.9441 96.0379 49.1995C96.3362 49.447 96.5692 49.7663 96.7368 50.1573C96.9045 50.5483 96.928 51.0141 96.8073 51.5545ZM103.035 48.4426C103.787 48.6105 104.326 48.994 104.653 49.5932C104.987 50.1942 105.057 50.9334 104.861 51.8106L104.011 55.6174L102.002 55.1689L102.799 51.5971C102.897 51.1584 102.856 50.7915 102.675 50.4962C102.504 50.1948 102.226 50.0013 101.842 49.9156C101.435 49.8247 101.081 49.8814 100.781 50.0856C100.488 50.2917 100.288 50.6336 100.182 51.1114L99.4052 54.5892L97.3961 54.1406L99.3371 45.4461L101.346 45.8947L100.601 49.2315C100.877 48.8818 101.224 48.6345 101.643 48.4895C102.069 48.3463 102.533 48.3307 103.035 48.4426ZM109.885 49.9595C110.535 50.1046 111.084 50.3711 111.532 50.7589C111.989 51.1407 112.306 51.6184 112.482 52.1923C112.666 52.7679 112.682 53.3964 112.53 54.0779C112.378 54.7593 112.096 55.3214 111.685 55.7641C111.281 56.2085 110.79 56.5101 110.212 56.6688C109.644 56.8215 109.034 56.8252 108.384 56.6801C107.734 56.535 107.18 56.2715 106.723 55.8898C106.267 55.5002 105.947 55.0176 105.763 54.4421C105.587 53.8682 105.575 53.2406 105.727 52.5591C105.879 51.8777 106.157 51.3147 106.561 50.8703C106.972 50.4276 107.466 50.1308 108.042 49.9799C108.62 49.8212 109.234 49.8144 109.885 49.9595ZM109.496 51.6984C109.113 51.6127 108.756 51.6811 108.427 51.9037C108.107 52.1201 107.889 52.4907 107.772 53.0155C107.654 53.5403 107.694 53.9687 107.892 54.3005C108.097 54.6341 108.391 54.8438 108.775 54.9295C109.159 55.0151 109.511 54.9498 109.83 54.7333C110.15 54.5169 110.368 54.1462 110.486 53.6214C110.603 53.0966 110.563 52.6683 110.365 52.3365C110.17 51.9968 109.88 51.7841 109.496 51.6984ZM118.411 51.863C118.951 51.9836 119.402 52.2282 119.764 52.5968C120.135 52.9593 120.386 53.4222 120.515 53.9856C120.654 54.5429 120.646 55.1661 120.492 55.8554C120.34 56.5369 120.082 57.1042 119.717 57.5574C119.361 58.0123 118.937 58.3288 118.445 58.5067C117.962 58.6786 117.451 58.7042 116.91 58.5836C116.409 58.4717 116.004 58.2619 115.694 57.9543C115.384 57.6467 115.191 57.2787 115.114 56.8504L114.151 61.1624L112.142 60.7138L114.304 51.0324L116.313 51.4809L116.048 52.6676C116.3 52.3127 116.631 52.0619 117.042 51.9152C117.453 51.7685 117.909 51.7511 118.411 51.863ZM117.371 53.4811C116.948 53.3867 116.567 53.4538 116.228 53.6824C115.899 53.9049 115.679 54.2629 115.569 54.7564C115.461 55.242 115.507 55.6595 115.709 56.0087C115.918 56.3598 116.235 56.5825 116.658 56.6769C117.088 56.7731 117.465 56.709 117.786 56.4848C118.115 56.2622 118.336 55.9003 118.448 55.399C118.56 54.8977 118.514 54.4763 118.311 54.1349C118.115 53.7952 117.802 53.5773 117.371 53.4811Z" fill="#01040D"/>
<path d="M126.374 53.6407C126.914 53.7614 127.365 54.006 127.727 54.3746C128.098 54.7371 128.349 55.2 128.478 55.7633C128.617 56.3206 128.609 56.9439 128.455 57.6332C128.303 58.3146 128.045 58.8819 127.68 59.3351C127.324 59.79 126.9 60.1065 126.408 60.2845C125.925 60.4563 125.414 60.482 124.873 60.3613C124.372 60.2494 123.967 60.0396 123.657 59.732C123.347 59.4244 123.154 59.0565 123.077 58.6281L122.114 62.9401L120.105 62.4915L122.267 52.8101L124.276 53.2587L124.011 54.4453C124.263 54.0904 124.594 53.8396 125.005 53.6929C125.416 53.5462 125.872 53.5288 126.374 53.6407ZM125.334 55.2588C124.911 55.1644 124.53 55.2315 124.191 55.4601C123.862 55.6826 123.642 56.0406 123.532 56.5341C123.424 57.0197 123.47 57.4372 123.672 57.7865C123.881 58.1375 124.198 58.3602 124.621 58.4546C125.051 58.5508 125.427 58.4868 125.749 58.2625C126.078 58.04 126.299 57.678 126.411 57.1767C126.523 56.6754 126.477 56.2541 126.274 55.9126C126.078 55.5729 125.765 55.355 125.334 55.2588ZM132.739 55.0617C133.24 55.1736 133.645 55.3834 133.955 55.691C134.265 55.9986 134.462 56.3674 134.547 56.7975L134.812 55.6108L136.809 56.0568L135.345 62.6129L133.348 62.167L133.613 60.9803C133.353 61.3334 133.018 61.5834 132.607 61.7301C132.196 61.8768 131.74 61.8942 131.238 61.7823C130.698 61.6616 130.242 61.4201 129.871 61.0576C129.509 60.689 129.259 60.2221 129.122 59.657C128.993 59.0937 129.005 58.4713 129.157 57.7898C129.311 57.1005 129.565 56.5324 129.92 56.0853C130.284 55.6321 130.708 55.3195 131.19 55.1477C131.682 54.9697 132.198 54.941 132.739 55.0617ZM132.991 56.9684C132.561 56.8722 132.181 56.9354 131.851 57.1579C131.53 57.3822 131.313 57.7449 131.201 58.2462C131.089 58.7476 131.131 59.1681 131.327 59.5077C131.53 59.8492 131.847 60.068 132.278 60.1642C132.701 60.2586 133.078 60.1906 133.409 59.9603C133.748 59.7317 133.971 59.3745 134.08 58.8889C134.19 58.3954 134.14 57.9771 133.928 57.6339C133.727 57.2846 133.414 57.0628 132.991 56.9684ZM139.708 56.704L140.385 61.0737L142.751 57.3833L144.972 57.8791L138.722 66.6477L136.513 66.1546L138.805 63.1261L137.464 56.203L139.708 56.704Z" fill="white"/>
</g>
<path d="M173.533 6.34755C175.059 4.6141 177.889 5.18256 178.628 7.37079L181.663 16.3693C182.402 18.5575 180.494 20.7244 178.23 20.2696L168.919 18.3995C166.655 17.9447 165.732 15.2094 167.258 13.4759L173.533 6.34755Z" fill="#FFBD59"/>
<path d="M14.5815 20.6996C13.3159 21.7283 11.7562 22.3283 10.1274 22.413C8.49865 22.4977 6.88509 22.0627 5.51958 21.1709C4.15408 20.279 3.10726 18.9763 2.53019 17.4508C1.95311 15.9254 1.87563 14.256 2.30892 12.6837C2.74221 11.1113 3.66387 9.71727 4.94089 8.70274C6.21791 7.68821 7.78424 7.10564 9.41385 7.03912C11.0435 6.9726 12.6521 7.42555 14.0075 8.33262C15.363 9.23969 16.3952 10.554 16.9552 12.0858L13.6548 13.2923C13.3506 12.46 12.7897 11.7459 12.0532 11.253C11.3167 10.7602 10.4426 10.5141 9.55718 10.5502C8.67172 10.5864 7.82063 10.9029 7.12676 11.4541C6.43288 12.0054 5.93209 12.7629 5.69665 13.6172C5.46122 14.4716 5.50332 15.3786 5.81688 16.2075C6.13044 17.0364 6.69924 17.7442 7.4412 18.2288C8.18315 18.7134 9.05989 18.9498 9.9449 18.9037C10.8299 18.8577 11.6774 18.5317 12.3651 17.9727L14.5815 20.6996Z" fill="#7B61FF"/>
<path fill-rule="evenodd" clip-rule="evenodd" d="M22.9187 69.9988C24.9083 71.0936 26.2266 73.1122 26.6083 75.5795L26.6093 75.5864L26.6093 75.5864C26.8175 76.9636 27.4833 77.7979 28.2227 78.2048C28.963 78.6121 30.0303 78.7301 31.3153 78.1696L32.9456 81.9077C30.657 82.9058 28.2463 82.8725 26.2567 81.7777C24.2673 80.683 22.9515 78.6659 22.5776 76.1999C22.3628 74.8163 21.6924 73.9788 20.9527 73.5717C20.2132 73.1649 19.1521 73.049 17.8773 73.6101L17.871 73.6129L17.871 73.6129C15.5825 74.611 13.1717 74.5776 11.1822 73.4828C9.19167 72.3876 7.8756 70.3689 7.50246 67.9013L11.5347 67.2916C11.743 68.6687 12.4087 69.5031 13.1482 69.9099C13.8879 70.317 14.9542 70.4351 16.2381 69.876C18.5212 68.8722 20.9293 68.9041 22.9187 69.9988Z" fill="white"/>
<defs>
<clipPath id="clip0_25_160">
<rect width="14.4463" height="14.4463" fill="white" transform="translate(73.1308 37.8787) rotate(12.585)"/>
</clipPath>
</defs>
</svg>
